<svg width="704" height="620" viewBox="0 0 704 620" fill="none" xmlns="http://www.w3.org/2000/svg">
<path d="M568.78 322.054L524.642 346.97L568.78 372.453L612.917 346.97L568.78 322.054Z" fill="#7FBB98"/>
<path d="M574.794 205.772L530.655 230.686L574.794 256.17L618.933 230.686L574.794 205.772Z" fill="#7FBB98"/>
<path d="M569.297 339.455C572.843 338.268 577.942 336.641 584.14 334.972C585.926 334.485 587.828 334 589.787 333.522C590.037 334.317 592.087 340.665 594.183 342.984C596.087 345.092 599.096 347.246 602.089 346.984C605.021 346.727 607.369 344.161 606.795 341.148C605.998 336.966 598.984 333.845 595.212 333.378C594.97 333.349 592.077 333.315 590.598 333.329C591.783 333.043 592.959 332.757 594.197 332.481C595.975 332.069 597.869 331.692 599.7 331.316C600.657 331.156 601.624 330.994 602.601 330.831C603.584 330.645 604.541 330.588 605.527 330.459C606.973 330.301 608.473 330.212 609.969 330.118C610.28 331.954 611.282 337.326 612.794 339.623C614.356 341.994 617.004 344.58 620.004 344.775C622.941 344.966 625.651 342.784 625.539 339.72C625.386 335.466 618.924 331.317 615.267 330.285C615.147 330.251 614.352 330.113 613.407 329.958C614.871 329.911 616.332 329.86 617.817 329.863C622.031 329.868 626.322 330.005 630.622 330.125C631.519 330.149 632.414 330.16 633.31 330.183C633.564 331.73 634.598 337.559 636.182 339.964C637.744 342.335 640.392 344.921 643.391 345.116C646.328 345.307 649.038 343.125 648.927 340.061C648.773 335.807 642.312 331.658 638.654 330.624C638.523 330.587 637.573 330.424 636.508 330.251C638.845 330.281 641.176 330.285 643.488 330.214C647.534 330.097 651.511 329.761 655.338 329.132C655.422 329.679 656.497 336.538 658.258 339.212C659.819 341.583 662.468 344.169 665.468 344.365C668.404 344.555 671.115 342.373 671.003 339.308C670.848 335.054 664.388 330.905 660.731 329.873C660.471 329.8 657.028 329.234 655.792 329.074C655.837 329.066 655.886 329.064 655.931 329.056C659.942 328.358 663.687 327.198 667.183 325.924C670.674 324.659 673.853 323.17 676.742 321.726C679.637 320.287 682.197 318.792 684.45 317.451C685.663 316.715 686.762 316.021 687.779 315.36C687.776 315.377 687.764 315.448 687.764 315.448C687.753 315.526 692.86 314.711 693.175 314.624C696.836 313.601 703.309 309.473 703.477 305.22C703.598 302.156 700.894 299.966 697.956 300.147C694.956 300.333 692.299 302.91 690.732 305.276C689.124 307.701 688.063 313.633 687.819 315.109C686.749 315.773 685.599 316.47 684.309 317.213C682.032 318.501 679.448 319.936 676.535 321.305C675.76 321.672 674.911 322.036 674.095 322.403C675.343 321.499 677.036 320.234 677.188 320.093C679.966 317.499 683.808 310.852 681.996 306.999C680.692 304.224 677.282 303.526 674.759 305.04C672.183 306.587 671.013 310.099 670.711 312.922C670.396 315.869 672.253 321.756 672.673 323.039C670.853 323.823 668.964 324.588 666.948 325.27C663.482 326.45 659.727 327.524 655.774 328.122C655.554 328.156 655.323 328.163 655.102 328.195C655.795 327.854 659.467 325.717 659.706 325.538C662.753 323.264 667.302 317.081 665.924 313.052C664.931 310.149 661.62 309.082 658.945 310.311C656.214 311.565 654.666 314.928 654.056 317.701C653.353 320.896 654.887 327.948 654.945 328.213C651.236 328.725 647.388 328.971 643.466 328.998C640.623 329.022 637.743 328.93 634.853 328.811C635.745 328.347 639.157 326.357 639.386 326.188C642.433 323.914 646.981 317.729 645.604 313.701C644.612 310.799 641.3 309.732 638.627 310.96C635.896 312.214 634.347 315.578 633.738 318.349C633.051 321.469 634.491 328.231 634.614 328.801C633.302 328.746 631.993 328.696 630.677 328.631C626.385 328.42 622.084 328.187 617.832 328.09C616.36 328.056 614.907 328.077 613.45 328.09C614.766 327.355 617.135 325.968 617.326 325.826C620.372 323.552 624.92 317.367 623.543 313.339C622.549 310.437 619.24 309.37 616.565 310.598C613.834 311.852 612.285 315.216 611.676 317.987C611.063 320.772 612.151 326.485 612.481 328.088C610.06 328.13 607.658 328.224 605.299 328.429C604.284 328.541 603.24 328.588 602.272 328.749C601.292 328.892 600.323 329.032 599.361 329.171C597.384 329.53 595.547 329.855 593.716 330.236C592.788 330.422 591.919 330.619 591.02 330.81C592.465 330.264 594.74 329.36 594.937 329.255C598.293 327.469 603.726 322.046 602.975 317.855C602.433 314.836 599.322 313.28 596.492 314.088C593.603 314.915 591.563 318.004 590.54 320.652C589.412 323.573 589.772 330.249 589.821 331.065C587.624 331.547 585.491 332.035 583.503 332.53C577.21 334.081 572.027 335.61 568.413 336.733C564.806 337.855 562.744 338.587 562.744 338.587L562.726 338.593C562.718 338.597 562.71 338.6 562.702 338.601C561.929 338.896 561.543 339.759 561.835 340.529C562.13 341.302 562.993 341.688 563.764 341.396C563.77 341.396 565.745 340.644 569.297 339.455Z" fill="#7FBB98"/>
<path d="M673.434 323.326C673.436 323.33 676.452 330.17 678.955 332.37C681.088 334.244 684.325 336.038 687.268 335.434C690.15 334.842 692.188 332.022 691.272 329.095C690 325.032 682.674 322.739 678.873 322.707C678.544 322.707 673.404 323.254 673.434 323.326Z" fill="#7FBB98"/>
<path d="M567.468 335.519C569.771 332.573 573.126 328.403 577.373 323.592C578.595 322.201 579.914 320.748 581.283 319.267C581.931 319.791 587.141 323.956 590.168 324.735C592.918 325.443 596.617 325.58 598.97 323.71C601.273 321.879 601.816 318.443 599.675 316.247C596.703 313.199 589.131 314.464 585.727 316.155C585.509 316.263 583.077 317.832 581.853 318.66C582.684 317.768 583.507 316.88 584.387 315.966C585.643 314.64 587.015 313.283 588.336 311.958C589.045 311.297 589.763 310.627 590.487 309.953C591.204 309.257 591.97 308.682 592.722 308.029C593.842 307.099 595.043 306.198 596.24 305.293C597.512 306.653 601.312 310.581 603.839 311.662C606.45 312.779 610.086 313.473 612.694 311.982C615.249 310.521 616.306 307.206 614.522 304.711C612.046 301.247 604.371 301.352 600.749 302.508C600.631 302.545 599.893 302.868 599.018 303.261C600.214 302.416 601.404 301.566 602.644 300.748C606.16 298.429 609.816 296.176 613.469 293.902C614.23 293.428 614.983 292.943 615.742 292.467C616.806 293.617 620.885 297.908 623.534 299.041C626.146 300.158 629.78 300.853 632.389 299.361C634.942 297.9 635.999 294.586 634.217 292.09C631.741 288.627 624.064 288.732 620.444 289.887C620.315 289.929 619.432 290.317 618.448 290.76C620.415 289.496 622.361 288.213 624.25 286.878C627.558 284.549 630.692 282.075 633.536 279.439C633.908 279.848 638.588 284.976 641.533 286.235C644.143 287.35 647.779 288.047 650.388 286.555C652.943 285.094 653.998 281.779 652.216 279.284C649.74 275.82 642.063 275.925 638.443 277.081C638.186 277.163 635.004 278.592 633.884 279.14C633.918 279.109 633.956 279.08 633.99 279.048C636.951 276.254 639.434 273.218 641.648 270.229C643.86 267.247 645.691 264.252 647.304 261.453C648.925 258.657 650.234 255.998 651.375 253.635C651.983 252.352 652.515 251.166 652.998 250.056C653.004 250.072 653.035 250.138 653.035 250.138C653.067 250.209 656.878 246.714 657.093 246.465C659.582 243.591 662.705 236.577 660.497 232.937C658.907 230.314 655.443 229.98 653.093 231.751C650.695 233.561 649.901 237.177 649.898 240.015C649.895 242.924 652.284 248.457 652.893 249.821C652.366 250.966 651.791 252.183 651.126 253.513C649.939 255.843 648.575 258.465 646.9 261.215C646.456 261.949 645.948 262.72 645.47 263.476C646.011 262.035 646.727 260.045 646.776 259.845C647.661 256.149 647.199 248.485 643.563 246.272C640.943 244.677 637.716 245.977 636.447 248.632C635.152 251.344 636.114 254.917 637.42 257.44C638.782 260.071 643.579 263.958 644.638 264.797C643.552 266.455 642.399 268.134 641.093 269.815C638.853 272.711 636.314 275.678 633.347 278.358C633.182 278.506 632.993 278.641 632.827 278.789C633.218 278.123 635.101 274.314 635.201 274.033C636.487 270.456 636.87 262.788 633.497 260.189C631.068 258.316 627.718 259.253 626.165 261.752C624.58 264.305 625.144 267.963 626.163 270.613C627.34 273.666 632.508 278.7 632.704 278.889C629.893 281.364 626.82 283.689 623.563 285.878C621.205 287.466 618.752 288.979 616.277 290.472C616.765 289.593 618.514 286.052 618.611 285.782C619.898 282.206 620.279 274.537 616.908 271.938C614.479 270.065 611.128 271.003 609.575 273.501C607.99 276.055 608.554 279.714 609.574 282.363C610.721 285.343 615.654 290.19 616.07 290.595C614.946 291.272 613.826 291.954 612.693 292.625C608.997 294.815 605.281 296.995 601.68 299.259C600.433 300.043 599.233 300.863 598.026 301.677C598.718 300.337 599.93 297.874 600.009 297.651C601.296 294.075 601.679 286.406 598.307 283.807C595.878 281.934 592.528 282.872 590.975 285.37C589.389 287.924 589.953 291.581 590.973 294.232C591.998 296.893 596.058 301.057 597.216 302.214C595.221 303.584 593.27 304.987 591.415 306.461C590.629 307.114 589.784 307.73 589.066 308.399C588.328 309.058 587.596 309.709 586.872 310.356C585.42 311.746 584.068 313.031 582.75 314.359C582.08 315.027 581.462 315.67 580.819 316.326C581.722 315.073 583.122 313.065 583.229 312.867C585.042 309.527 586.581 302.005 583.642 298.925C581.525 296.706 578.072 297.123 576.158 299.358C574.204 301.642 574.207 305.343 574.815 308.116C575.484 311.174 579.468 316.544 579.959 317.197C578.393 318.81 576.884 320.394 575.499 321.903C571.104 326.669 567.626 330.803 565.231 333.734C562.841 336.659 561.525 338.407 561.525 338.407L561.514 338.422C561.509 338.428 561.504 338.435 561.5 338.443C561.018 339.114 561.171 340.048 561.841 340.529C562.511 341.011 563.445 340.858 563.927 340.188C563.927 340.188 565.16 338.472 567.468 335.519Z" fill="#7FBB98"/>
<path d="M645.426 264.619C645.431 264.622 651.718 268.662 655.021 269.117C657.833 269.503 661.525 269.215 663.647 267.087C665.725 265.003 665.869 261.527 663.49 259.591C660.188 256.905 652.812 259.032 649.623 261.104C649.347 261.283 645.36 264.577 645.426 264.619Z" fill="#7FBB98"/>
<path d="M591.983 137.016C571.943 173.79 584.828 219.477 584.828 219.477C584.828 219.477 630.205 205.54 650.245 168.767C670.286 131.993 657.4 86.3057 657.4 86.3057C657.4 86.3057 612.023 100.24 591.983 137.016Z" fill="#7FBB98"/>
<path d="M584.828 219.476L657.4 86.304" stroke="white" stroke-width="1.45195" stroke-miterlimit="10"/>
<path d="M631.605 133.64L623.054 110.512" stroke="white" stroke-width="1.45195" stroke-miterlimit="10"/>
<path d="M619.871 155.787L656.008 137.538" stroke="white" stroke-width="1.45195" stroke-miterlimit="10"/>
<path d="M612.699 168.332L600.333 133.723" stroke="white" stroke-width="1.45195" stroke-miterlimit="10"/>
<path d="M603.647 185.56L639.034 177.311" stroke="white" stroke-width="1.45195" stroke-miterlimit="10"/>
<path d="M595.605 200.317L585.006 175.403" stroke="white" stroke-width="1.45195" stroke-miterlimit="10"/>
<path d="M540.895 182.733C546.348 206.395 569.514 221.258 569.514 221.258C569.514 221.258 583.838 197.756 578.383 174.092C572.93 150.43 549.765 135.568 549.765 135.568C549.765 135.568 535.441 159.07 540.895 182.733Z" fill="#7FBB98"/>
<path d="M569.514 221.258L549.765 135.568" stroke="white" stroke-width="1.45195" stroke-miterlimit="10"/>
<path d="M556.785 166.026L544.177 159.283" stroke="white" stroke-width="1.45195" stroke-miterlimit="10"/>
<path d="M560.215 180.148L568.871 158.328" stroke="white" stroke-width="1.45195" stroke-miterlimit="10"/>
<path d="M561.929 188.348L543.25 178.092" stroke="white" stroke-width="1.45195" stroke-miterlimit="10"/>
<path d="M564.63 199.305L576.808 182.113" stroke="white" stroke-width="1.45195" stroke-miterlimit="10"/>
<path d="M566.819 208.8L552.637 202.069" stroke="white" stroke-width="1.45195" stroke-miterlimit="10"/>
<path d="M627.641 200.21C604.451 207.415 591.36 231.625 591.36 231.625C591.36 231.625 615.866 244.155 639.056 236.95C662.246 229.746 675.337 205.536 675.337 205.536C675.337 205.536 650.831 193.006 627.641 200.21Z" fill="#7FBB98"/>
<path d="M591.36 231.625L675.337 205.536" stroke="white" stroke-width="1.45195" stroke-miterlimit="10"/>
<path d="M645.488 214.809L651.271 201.735" stroke="white" stroke-width="1.45195" stroke-miterlimit="10"/>
<path d="M631.662 219.284L654.065 226.287" stroke="white" stroke-width="1.45195" stroke-miterlimit="10"/>
<path d="M623.612 221.607L632.444 202.213" stroke="white" stroke-width="1.45195" stroke-miterlimit="10"/>
<path d="M612.887 225.117L630.939 235.977" stroke="white" stroke-width="1.45195" stroke-miterlimit="10"/>
<path d="M603.581 228.008L609.234 213.363" stroke="white" stroke-width="1.45195" stroke-miterlimit="10"/>
<path d="M133.596 241.021L89.4575 265.938L133.596 291.421L177.735 265.938L133.596 241.021Z" fill="#7FBB98"/>
<path d="M98.356 286.202L54.2173 311.119L98.356 336.602L142.493 311.119L98.356 286.202Z" fill="#7FBB98"/>
<path d="M328.339 276.094L284.201 301.01L534.656 449.086L578.794 423.604L328.339 276.094Z" fill="#7FBB98"/>
<path d="M286.528 268.918L262.159 255.163L199.889 290.744L224.477 304.94L286.528 268.918Z" fill="#69BE3F"/>
<path d="M487.935 560.793L440.349 534.801L378.079 570.382L425.885 596.814L487.935 560.793Z" fill="#69BE3F"/>
<path d="M24.9162 280.139L0 294.204L24.9162 308.589L49.8324 294.204L24.9162 280.139Z" fill="#7FBB98"/>
<path d="M557.145 455.441L532.229 469.507L557.145 483.892L582.063 469.507L557.145 455.441Z" fill="#7FBB98"/>
<path d="M626.724 451.826L601.808 465.891L626.724 480.276L651.64 465.891L626.724 451.826Z" fill="#7FBB98"/>
<path d="M21.2739 415.769L293.836 576.265L492.624 463.532L230.255 298.078L21.2739 415.769Z" fill="#69BE3F"/>
<path d="M627.529 387.669L575.602 416.982L627.529 446.961L679.456 416.982L627.529 387.669Z" fill="#7FBB98"/>
<path d="M131.354 259.662C131.813 255.951 132.545 250.649 133.71 244.338C134.042 242.516 134.425 240.591 134.838 238.618C135.664 238.735 142.276 239.623 145.272 238.735C147.994 237.926 151.236 236.141 152.291 233.327C153.324 230.571 152.021 227.346 149.056 226.565C144.939 225.48 139.099 230.461 137.049 233.663C136.918 233.868 135.64 236.465 135.016 237.805C135.27 236.613 135.519 235.429 135.803 234.192C136.199 232.409 136.676 230.539 137.127 228.724C137.395 227.792 137.667 226.849 137.94 225.899C138.197 224.933 138.559 224.044 138.866 223.1C139.348 221.726 139.913 220.335 140.474 218.945C142.265 219.457 147.543 220.87 150.268 220.495C153.08 220.108 156.556 218.835 158.025 216.213C159.464 213.645 158.665 210.26 155.852 209.038C151.947 207.342 145.418 211.381 142.908 214.235C142.827 214.327 142.358 214.987 141.811 215.772C142.4 214.431 142.984 213.091 143.627 211.751C145.449 207.953 147.425 204.141 149.387 200.312C149.796 199.514 150.192 198.711 150.599 197.912C152.104 198.35 157.809 199.931 160.663 199.54C163.475 199.153 166.951 197.88 168.42 195.257C169.859 192.69 169.059 189.305 166.247 188.083C162.342 186.387 155.813 190.426 153.303 193.28C153.214 193.382 152.657 194.169 152.041 195.056C153.077 192.962 154.084 190.859 155.018 188.742C156.657 185.043 158.071 181.309 159.153 177.586C159.682 177.746 166.334 179.734 169.507 179.299C172.319 178.913 175.795 177.639 177.264 175.016C178.702 172.45 177.902 169.064 175.09 167.84C171.186 166.145 164.656 170.184 162.147 173.038C161.969 173.24 159.974 176.104 159.296 177.149C159.309 177.106 159.326 177.061 159.339 177.017C160.44 173.096 161.007 169.219 161.366 165.515C161.73 161.82 161.757 158.308 161.701 155.079C161.65 151.847 161.406 148.894 161.169 146.283C161.028 144.87 160.875 143.579 160.718 142.378C160.732 142.388 160.792 142.43 160.792 142.43C160.857 142.473 162.326 137.515 162.383 137.192C163.039 133.447 162.106 125.827 158.341 123.842C155.629 122.412 152.487 123.907 151.383 126.635C150.257 129.421 151.438 132.93 152.896 135.365C154.391 137.861 159.284 141.378 160.509 142.234C160.647 143.487 160.779 144.825 160.894 146.308C161.075 148.919 161.254 151.868 161.233 155.087C161.23 155.946 161.191 156.868 161.17 157.762C160.892 156.246 160.484 154.173 160.421 153.975C159.278 150.35 154.939 144.017 150.682 143.991C147.616 143.971 145.515 146.746 145.793 149.675C146.077 152.666 148.742 155.236 151.158 156.726C153.68 158.281 159.793 159.146 161.133 159.32C161.056 161.301 160.931 163.335 160.676 165.447C160.244 169.082 159.595 172.933 158.429 176.758C158.365 176.97 158.271 177.183 158.205 177.395C158.197 176.623 157.851 172.388 157.794 172.096C157.057 168.367 153.439 161.596 149.211 161.101C146.164 160.746 143.773 163.272 143.727 166.215C143.68 169.219 146.046 172.067 148.285 173.812C150.864 175.826 157.886 177.481 158.151 177.544C157.014 181.112 155.575 184.689 153.909 188.239C152.705 190.816 151.38 193.374 150.025 195.929C149.993 194.924 149.67 190.989 149.613 190.707C148.875 186.979 145.258 180.207 141.03 179.713C137.984 179.357 135.592 181.883 135.546 184.825C135.501 187.829 137.867 190.677 140.104 192.424C142.622 194.389 149.343 196.007 149.911 196.141C149.295 197.301 148.686 198.462 148.059 199.619C146.016 203.399 143.952 207.179 142.03 210.972C141.365 212.286 140.757 213.607 140.141 214.925C140.044 213.421 139.816 210.686 139.771 210.453C139.034 206.725 135.415 199.953 131.188 199.459C128.141 199.103 125.749 201.629 125.704 204.572C125.659 207.577 128.023 210.424 130.262 212.171C132.51 213.927 138.132 215.409 139.722 215.803C138.716 218.006 137.765 220.212 136.933 222.429C136.595 223.392 136.188 224.356 135.916 225.298C135.622 226.243 135.33 227.179 135.042 228.105C134.514 230.043 134.014 231.842 133.568 233.658C133.335 234.575 133.138 235.444 132.923 236.338C133.054 234.798 133.221 232.356 133.211 232.133C133.046 228.335 130.497 221.093 126.392 219.965C123.435 219.15 120.689 221.287 120.198 224.188C119.697 227.15 121.604 230.324 123.553 232.39C125.701 234.667 131.879 237.222 132.637 237.53C132.125 239.719 131.645 241.855 131.234 243.861C129.919 250.208 129.064 255.544 128.518 259.289C127.973 263.027 127.745 265.204 127.745 265.204L127.744 265.223C127.744 265.231 127.742 265.239 127.742 265.247C127.674 266.07 128.285 266.793 129.108 266.86C129.93 266.928 130.653 266.317 130.721 265.495C130.721 265.487 130.895 263.381 131.354 259.662Z" fill="#7FBB98"/>
<path d="M161.72 158.753C161.725 158.753 169.197 158.982 172.261 157.673C174.871 156.558 177.888 154.412 178.612 151.495C179.322 148.639 177.657 145.584 174.62 145.148C170.407 144.544 165.177 150.163 163.509 153.58C163.366 153.875 161.643 158.751 161.72 158.753Z" fill="#7FBB98"/>
<path d="M127.015 259.615C125.351 256.267 123.036 251.441 120.527 245.534C119.799 243.832 119.056 242.015 118.311 240.141C119.062 239.784 125.068 236.878 127.077 234.483C128.901 232.307 130.621 229.028 129.949 226.1C129.291 223.233 126.424 221.261 123.52 222.245C119.487 223.611 117.364 230.988 117.42 234.79C117.424 235.034 117.79 237.904 118.01 239.365C117.564 238.23 117.118 237.106 116.674 235.918C116.021 234.213 115.386 232.39 114.76 230.628C114.469 229.702 114.177 228.768 113.879 227.822C113.561 226.875 113.372 225.935 113.107 224.976C112.751 223.566 112.455 222.093 112.156 220.623C113.933 220.062 119.114 218.328 121.179 216.513C123.313 214.64 125.509 211.658 125.288 208.661C125.071 205.726 122.537 203.343 119.516 203.876C115.324 204.616 112.108 211.587 111.588 215.352C111.571 215.475 111.544 216.282 111.521 217.24C111.274 215.797 111.02 214.357 110.818 212.884C110.243 208.711 109.787 204.442 109.31 200.165C109.212 199.275 109.099 198.386 108.997 197.495C110.493 197.032 116.124 195.202 118.288 193.301C120.421 191.427 122.618 188.448 122.396 185.45C122.18 182.515 119.646 180.131 116.625 180.665C112.433 181.405 109.217 188.375 108.696 192.141C108.679 192.275 108.648 193.24 108.624 194.318C108.333 191.999 108.013 189.689 107.625 187.409C106.951 183.419 106.07 179.525 104.919 175.823C105.449 175.664 112.093 173.652 114.5 171.54C116.633 169.665 118.828 166.687 118.608 163.689C118.392 160.754 115.857 158.37 112.837 158.903C108.645 159.644 105.428 166.614 104.908 170.38C104.871 170.646 104.787 174.136 104.8 175.382C104.785 175.338 104.777 175.289 104.763 175.246C103.518 171.369 101.852 167.821 100.108 164.534C98.3723 161.252 96.4604 158.309 94.6293 155.647C92.8047 152.979 90.972 150.65 89.3332 148.602C88.4379 147.501 87.5975 146.509 86.8039 145.593C86.8217 145.593 86.8944 145.594 86.8944 145.594C86.972 145.596 85.4625 140.649 85.3316 140.348C83.814 136.864 78.8315 131.021 74.5955 131.443C71.5442 131.747 69.7471 134.727 70.3321 137.611C70.9301 140.555 73.8505 142.831 76.4105 144.059C79.0335 145.316 85.0552 145.549 86.5502 145.588C87.355 146.556 88.2051 147.6 89.1183 148.773C90.7086 150.852 92.4847 153.211 94.2431 155.909C94.7134 156.626 95.1901 157.416 95.6669 158.174C94.6002 157.064 93.1134 155.559 92.9534 155.43C90.0007 153.037 82.8864 150.149 79.3211 152.474C76.7531 154.15 76.5317 157.622 78.3805 159.912C80.2682 162.25 83.9078 162.924 86.7457 162.834C89.7065 162.74 95.2822 160.088 96.496 159.495C97.5239 161.19 98.542 162.955 99.4939 164.857C101.139 168.127 102.723 171.698 103.861 175.53C103.924 175.744 103.964 175.971 104.026 176.186C103.593 175.546 100.968 172.204 100.759 171.993C98.0879 169.289 91.334 165.636 87.5344 167.558C84.7967 168.941 84.1971 172.369 85.7825 174.847C87.4019 177.378 90.9461 178.447 93.776 178.669C97.0374 178.924 103.809 176.432 104.064 176.338C105.084 179.942 105.857 183.719 106.426 187.6C106.843 190.412 107.148 193.277 107.428 196.156C106.846 195.336 104.405 192.232 104.203 192.026C101.532 189.323 94.778 185.672 90.9784 187.592C88.2407 188.975 87.6411 192.401 89.2265 194.88C90.8459 197.411 94.3901 198.481 97.22 198.703C100.405 198.953 106.904 196.594 107.45 196.393C107.576 197.701 107.709 199.005 107.825 200.316C108.207 204.595 108.57 208.888 109.06 213.112C109.23 214.576 109.451 216.012 109.664 217.452C108.754 216.249 107.054 214.095 106.888 213.925C104.216 211.221 97.4624 207.569 93.6629 209.49C90.9251 210.874 90.3255 214.302 91.911 216.779C93.5303 219.31 97.0746 220.38 99.9044 220.603C102.747 220.826 108.255 218.961 109.799 218.413C110.173 220.805 110.599 223.171 111.127 225.479C111.378 226.47 111.568 227.498 111.862 228.433C112.139 229.384 112.412 230.326 112.682 231.257C113.309 233.165 113.886 234.94 114.514 236.702C114.826 237.595 115.142 238.429 115.455 239.292C114.715 237.936 113.506 235.808 113.375 235.625C111.143 232.548 105.021 227.915 100.976 229.238C98.0604 230.192 96.9469 233.487 98.1396 236.178C99.3566 238.925 102.697 240.519 105.462 241.169C108.51 241.883 115.072 240.606 115.875 240.445C116.654 242.554 117.433 244.598 118.198 246.499C120.602 252.519 122.833 257.44 124.442 260.865C126.051 264.283 127.061 266.224 127.061 266.224L127.069 266.24C127.072 266.248 127.077 266.255 127.08 266.263C127.478 266.987 128.386 267.252 129.11 266.854C129.834 266.457 130.099 265.548 129.701 264.824C129.701 264.824 128.683 262.971 127.015 259.615Z" fill="#7FBB98"/>
<path d="M96.6734 158.7C96.6782 158.696 103.036 154.766 104.87 151.983C106.432 149.612 107.763 146.158 106.76 143.325C105.776 140.552 102.702 138.923 99.9299 140.233C96.0819 142.053 94.8196 149.627 95.3126 153.395C95.3562 153.723 96.6087 158.742 96.6734 158.7Z" fill="#7FBB98"/>
<path d="M376.106 522.258L370.765 521.19L369.43 518.518L377.976 513.71C377.976 513.71 380.647 513.977 382.249 518.518C383.851 523.059 376.106 522.258 376.106 522.258Z" fill="white" stroke="#333333" stroke-width="1.45195" stroke-miterlimit="10"/>
<path d="M230.255 298.078L21.2739 415.769L288.597 568.21L496.047 449.276L230.255 298.078Z" fill="white" stroke="#333333" stroke-width="1.45195" stroke-miterlimit="10" stroke-linecap="round"/>
<path d="M84.0889 415.865L142.939 381.887L231.217 432.287L172.365 466.265L84.0889 415.865Z" fill="#3F9964"/>
<path d="M221.878 337.118L231.217 331.772" stroke="#333333" stroke-width="1.45195" stroke-miterlimit="10" stroke-linecap="round"/>
<path d="M172.364 365.467L217.705 339.507" stroke="#333333" stroke-width="1.45195" stroke-miterlimit="10" stroke-linecap="round"/>
<path d="M187.078 374.293L245.928 340.266" stroke="#333333" stroke-width="1.45195" stroke-miterlimit="10" stroke-linecap="round"/>
<path d="M224.298 368.72L258.66 348.618" stroke="#333333" stroke-width="1.45195" stroke-miterlimit="10" stroke-linecap="round"/>
<path d="M201.789 381.887L216.54 373.26" stroke="#333333" stroke-width="1.45195" stroke-miterlimit="10" stroke-linecap="round"/>
<path d="M327.543 410.567L348.919 398.26" stroke="#333333" stroke-width="1.45195" stroke-miterlimit="10" stroke-linecap="round"/>
<path d="M302.109 425.211L319.822 415.012" stroke="#333333" stroke-width="1.45195" stroke-miterlimit="10" stroke-linecap="round"/>
<path d="M231.75 465.721L295.491 429.02" stroke="#333333" stroke-width="1.45195" stroke-miterlimit="10" stroke-linecap="round"/>
<path d="M201.789 482.971L225.066 469.568" stroke="#333333" stroke-width="1.45195" stroke-miterlimit="10" stroke-linecap="round"/>
<path d="M337.449 422.336L363.631 407.37" stroke="#333333" stroke-width="1.45195" stroke-miterlimit="10" stroke-linecap="round"/>
<path d="M318.783 433.004L330.388 426.371" stroke="#333333" stroke-width="1.45195" stroke-miterlimit="10" stroke-linecap="round"/>
<path d="M298.214 444.762L313.748 435.883" stroke="#333333" stroke-width="1.45195" stroke-miterlimit="10" stroke-linecap="round"/>
<path d="M216.502 491.464L289.31 449.851" stroke="#333333" stroke-width="1.45195" stroke-miterlimit="10" stroke-linecap="round"/>
<path d="M365.105 423.408L378.344 415.865" stroke="#333333" stroke-width="1.45195" stroke-miterlimit="10" stroke-linecap="round"/>
<path d="M259.958 483.302L359.143 426.803" stroke="#333333" stroke-width="1.45195" stroke-miterlimit="10" stroke-linecap="round"/>
<path d="M231.216 499.675L255.719 485.717" stroke="#333333" stroke-width="1.45195" stroke-miterlimit="10" stroke-linecap="round"/>
<path d="M312.163 470.313L393.056 424.077" stroke="#333333" stroke-width="1.45195" stroke-miterlimit="10" stroke-linecap="round"/>
<path d="M259.356 500.495L307.249 473.12" stroke="#333333" stroke-width="1.45195" stroke-miterlimit="10" stroke-linecap="round"/>
<path d="M245.928 508.17L254.261 503.407" stroke="#333333" stroke-width="1.45195" stroke-miterlimit="10" stroke-linecap="round"/>
<path d="M403.626 434.94L407.77 432.571" stroke="#333333" stroke-width="1.45195" stroke-miterlimit="10" stroke-linecap="round"/>
<path d="M359.109 460.384L396.564 438.976" stroke="#333333" stroke-width="1.45195" stroke-miterlimit="10" stroke-linecap="round"/>
<path d="M297.893 495.373L351.987 464.455" stroke="#333333" stroke-width="1.45195" stroke-miterlimit="10" stroke-linecap="round"/>
<path d="M260.641 516.664L289.234 500.322" stroke="#333333" stroke-width="1.45195" stroke-miterlimit="10" stroke-linecap="round"/>
<path d="M234.496 128.757L247.285 131.968L251.338 145.649L235.514 140.485L234.496 128.757Z" fill="white" stroke="#333333" stroke-width="1.08896" stroke-miterlimit="10" stroke-linecap="round" stroke-linejoin="round"/>
<path d="M427.03 43.5747C427.854 37.9262 425.132 32.3489 420.172 29.5223L369.855 0.853348C365.902 -1.39957 360.921 1.03112 360.265 5.53372C359.609 10.0363 354.628 12.467 350.675 10.2141L346.017 7.56038L304.828 289.954L551.966 430.654L613.75 160.106L433.887 57.6255C428.927 54.8005 426.205 49.2231 427.03 43.5747Z" fill="#333333"/>
<path d="M304.828 30.1121V289.954L551.965 430.654L572.559 183.1L304.828 30.1121Z" fill="#3F9964" stroke="#333333" stroke-width="1.45195" stroke-miterlimit="10" stroke-linecap="round"/>
<path d="M304.587 46.8831L317.902 206.653L329.193 270.52L552.6 396.874L555.737 188.279L304.587 46.8831Z" fill="#9BD37F"/>
<path d="M304.828 289.954L284.233 42.8359L551.965 196.12V430.654L304.828 289.954Z" fill="white" stroke="#333333" stroke-width="1.45195" stroke-miterlimit="10" stroke-linecap="round"/>
<path d="M286.028 64.3811L299.342 224.151L310.634 288.018L550.823 426.866L537.178 205.777L286.028 64.3811Z" fill="#9BD37F"/>
<path d="M304.827 289.953L263.636 56.9805L531.369 207.712L551.964 430.654L304.827 289.953Z" fill="white" stroke="#333333" stroke-width="1.45195" stroke-miterlimit="10" stroke-linecap="round"/>
<path d="M318.212 296.811L281.336 88.2434L521.023 223.186L544.961 424.425L318.212 296.811Z" fill="#3F9964" stroke="#333333" stroke-width="1.45195" stroke-miterlimit="10" stroke-linecap="round"/>
<path d="M270.767 97.3083L299.242 258.369L309.068 283.591L550.479 420.734L494.654 225.131L270.767 97.3083Z" fill="#9BD37F"/>
<path d="M222.448 78.5061L490.412 231.494L551.965 430.654L304.828 289.954L222.448 78.5061Z" fill="#333333" stroke="#333333" stroke-width="1.45195" stroke-miterlimit="10"/>
<path d="M241.24 142.04C241.24 142.04 240.533 136.92 242.828 133.037" stroke="#333333" stroke-width="0.725975" stroke-miterlimit="10" stroke-linecap="round" stroke-linejoin="round"/>
<path d="M415.976 454.15C415.976 454.15 412.505 451.478 413.038 455.485C413.571 459.491 415.976 462.429 418.38 462.696C420.783 462.962 420.783 460.826 420.783 460.826L415.976 454.15Z" fill="white" stroke="#333333" stroke-width="1.45195" stroke-miterlimit="10"/>
<path d="M439.749 449.075C439.749 449.075 442.687 446.403 443.22 450.41C443.754 454.416 442.152 458.423 440.549 458.423C438.947 458.423 439.749 449.075 439.749 449.075Z" fill="white" stroke="#333333" stroke-width="1.45195" stroke-miterlimit="10"/>
<path d="M424.258 466.436L427.197 474.715C427.197 474.715 430.668 476.05 434.141 474.982C437.613 473.913 441.086 469.907 441.086 469.907L438.682 461.093L424.258 466.436Z" fill="white" stroke="#333333" stroke-width="1.45195" stroke-miterlimit="10"/>
<path d="M424.781 467.519C420.645 464.136 417.473 458.138 415.978 454.15C413.575 447.74 409.568 441.864 411.705 439.192C413.841 436.521 417.313 438.657 417.313 438.657C417.313 438.657 413.307 433.048 421.586 429.843C429.866 426.638 438.947 427.44 438.145 430.911C437.344 434.383 436.275 435.986 437.61 436.253C438.945 436.519 443.22 435.451 442.685 439.724C442.15 443.997 439.48 446.669 439.48 447.47C439.48 448.272 440.815 453.078 440.282 457.085C439.213 465.114 433.88 474.963 424.781 467.519Z" fill="#333333"/>
<path d="M390.229 567.714C390.229 567.714 398.964 572.89 408.349 577.743C417.733 582.597 454.914 598.807 454.914 598.807L458.796 593.953L424.204 562.86C424.204 562.86 397.995 557.036 390.229 567.714Z" fill="#333333"/>
<path d="M425.822 535.358C425.822 535.358 412.88 535.035 413.203 538.594C413.526 542.152 430.029 547.331 433.588 547.331C437.147 547.331 435.206 538.594 435.206 538.594L425.822 535.358Z" fill="white" stroke="#333333" stroke-width="1.45195" stroke-miterlimit="10"/>
<path d="M425.498 521.121C425.498 521.121 425.498 536.329 427.115 537.947C428.733 539.565 432.617 541.183 434.558 539.888C436.499 538.594 437.47 532.123 437.47 532.123C437.47 532.123 431.645 516.915 425.498 521.121Z" fill="#333333"/>
<path d="M434.234 543.77C434.234 543.77 394.111 552.507 391.524 555.743C388.935 558.978 387.317 563.832 390.229 567.715C393.142 571.597 440.058 569.333 447.176 568.686C454.293 568.04 459.472 564.48 464.325 559.626C469.178 554.773 472.737 549.272 471.444 540.86C470.384 533.97 467.56 529.858 467.56 529.858L434.138 536.682L434.234 543.77Z" fill="#333333"/>
<path d="M435.636 544.231C435.636 544.231 435.636 548.586 446.283 553.184" stroke="white" stroke-width="0.725975" stroke-miterlimit="10" stroke-linejoin="round"/>
<path d="M434.426 545.925C434.426 545.925 434.183 550.765 437.813 555.12" stroke="white" stroke-width="0.725975" stroke-miterlimit="10" stroke-linejoin="round"/>
<path d="M439.266 556.331C439.266 556.331 441.445 558.025 443.381 558.51" stroke="white" stroke-width="0.725975" stroke-miterlimit="10" stroke-linejoin="round"/>
<path d="M430.326 569.598C430.326 569.598 404.473 568.536 399.868 567.119" stroke="white" stroke-width="0.725975" stroke-miterlimit="10" stroke-linejoin="round"/>
<path d="M398.099 569.244C398.099 569.244 403.765 570.661 410.141 568.89" stroke="white" stroke-width="0.725975" stroke-miterlimit="10" stroke-linejoin="round"/>
<path d="M409.833 492.076C409.032 493.144 407.963 495.816 407.963 495.816C407.963 495.816 401.389 513.01 397.287 524.696L381.521 518.518C376.18 518.518 375.378 522.258 375.378 522.258C375.378 522.258 391.671 535.612 395.411 538.817C399.15 542.021 401.554 540.953 401.554 540.953C401.586 540.911 401.612 540.872 401.644 540.83C402.234 540.716 402.83 540.501 403.423 540.152C407.965 537.48 419.983 513.443 419.983 513.443L424.668 513.036" fill="white"/>
<path d="M409.833 492.076C409.032 493.144 407.963 495.816 407.963 495.816C407.963 495.816 401.389 513.01 397.287 524.696L381.521 518.518C376.18 518.518 375.378 522.258 375.378 522.258C375.378 522.258 391.671 535.612 395.411 538.817C399.15 542.021 401.554 540.953 401.554 540.953C401.586 540.911 401.612 540.872 401.644 540.83C402.234 540.716 402.83 540.501 403.423 540.152C407.965 537.48 419.983 513.443 419.983 513.443L424.668 513.036" stroke="#333333" stroke-width="1.45195" stroke-miterlimit="10"/>
<path d="M393.14 522.851C393.14 522.851 388.182 523.912 387.12 531.704" stroke="#333333" stroke-width="0.725975" stroke-miterlimit="10" stroke-linejoin="round"/>
<path d="M425.592 475.25C425.592 475.25 432.427 474.649 437.827 471.95C443.226 469.251 444.126 466.55 444.126 466.55" stroke="#333333" stroke-width="0.725975" stroke-miterlimit="10" stroke-linejoin="round"/>
<path d="M455.625 598.493C455.625 598.493 457.486 602.482 457.205 605.013C456.923 607.544 454.955 617.667 456.642 619.073C458.329 620.479 467.047 606.419 468.734 602.201C470.421 597.982 458.798 593.953 458.798 593.953C458.798 593.953 456.015 595.629 455.625 598.493Z" fill="white" stroke="#333333" stroke-width="1.45195" stroke-miterlimit="10"/>
<path d="M456.642 619.073C456.642 619.073 459.835 613.198 462.254 607.632C464.674 602.066 467.095 598.921 467.095 598.921" stroke="#333333" stroke-width="0.725975" stroke-miterlimit="10" stroke-linejoin="round"/>
<path d="M414.1 537.456C414.1 537.456 424.505 544.231 428.62 544.473" stroke="#333333" stroke-width="0.725975" stroke-miterlimit="10" stroke-linejoin="round"/>
<path d="M454.973 463.764C454.973 463.764 460.12 463.202 462.061 467.732C464.002 472.262 476.944 489.734 478.239 493.618C479.533 497.5 479.533 503.324 473.385 505.265C467.238 507.206 463.356 498.146 463.356 498.146L454.295 467.407" fill="white"/>
<path d="M454.973 463.764C454.973 463.764 460.12 463.202 462.061 467.732C464.002 472.262 476.944 489.734 478.239 493.618C479.533 497.5 479.533 503.324 473.385 505.265C467.238 507.206 463.356 498.146 463.356 498.146L454.295 467.407" stroke="#333333" stroke-width="1.45195" stroke-miterlimit="10"/>
<path d="M465.387 495.934C465.387 495.934 469.991 499.121 474.24 499.121" stroke="#333333" stroke-width="0.725975" stroke-miterlimit="10" stroke-linejoin="round"/>
<path d="M465.743 497.351C465.743 497.351 470.701 502.309 471.763 502.309" stroke="#333333" stroke-width="0.725975" stroke-miterlimit="10" stroke-linejoin="round"/>
<path d="M442.686 466.703C442.686 466.703 428.53 472.044 425.592 475.249C422.654 478.454 414.374 485.132 411.703 489.138C409.031 493.144 407.43 494.479 408.765 498.219C410.099 501.959 431.2 530.537 434.138 536.68C437.076 542.823 439.748 544.693 449.629 544.693C459.512 544.693 466.723 538.015 468.325 531.872C469.928 525.729 462.715 480.057 462.448 473.647C462.182 467.238 458.708 463.764 454.97 463.764C451.232 463.764 442.686 466.703 442.686 466.703Z" fill="white" stroke="#333333" stroke-width="1.45195" stroke-miterlimit="10"/>
<path d="M419.982 513.443C419.982 513.443 422.534 515.767 432.805 517.891" stroke="#333333" stroke-width="0.725975" stroke-miterlimit="10" stroke-linejoin="round"/>
<path d="M434.93 517.893L440.95 518.6" stroke="#333333" stroke-width="0.725975" stroke-miterlimit="10" stroke-linejoin="round"/>
<path d="M422.181 515.414C422.181 515.414 427.847 521.08 440.243 527.809" stroke="#333333" stroke-width="0.725975" stroke-miterlimit="10" stroke-linejoin="round"/>
<path d="M395.973 533.83C393.848 528.163 397.287 524.697 397.287 524.697C397.287 524.697 392.077 527.808 392.432 532.412" stroke="#333333" stroke-width="0.725975" stroke-miterlimit="10" stroke-linejoin="round"/>
<path d="M449.804 479.643C449.804 479.643 451.576 491.685 449.804 503.371" stroke="#333333" stroke-width="0.725975" stroke-miterlimit="10" stroke-linejoin="round"/>
<path d="M266.29 262.773C266.29 262.773 272.67 268.304 277.776 267.027C280.386 266.374 272.67 259.795 269.579 257.632C267.344 256.068 262.694 258.746 266.29 262.773Z" fill="#333333"/>
<path d="M213.465 286.599C213.465 286.599 210.93 295.213 211.944 300.279C212.957 305.346 216.505 299.772 217.01 296.226C217.518 292.679 217.566 285.128 217.566 285.128L213.465 286.599Z" fill="#333333"/>
<path d="M223.994 177.657C223.994 177.657 215.653 181.925 216.655 193.476C217.657 205.026 220.186 231.551 217.783 236.328C215.378 241.107 211.336 241.757 212.508 251.328C213.681 260.898 212.254 288.913 215.139 290.157C218.024 291.402 227.708 242.663 228.925 234.293C230.142 225.923 238.386 195.839 238.386 195.839C238.386 195.839 250.314 225.275 251.375 230.35C252.228 234.436 261.784 253.807 265.477 261.204C266.19 262.631 268.084 262.943 269.223 261.824C269.821 261.238 270.062 260.386 269.855 259.573C268.149 252.913 260.49 222.878 260.679 220.68C260.891 218.206 255.507 193.818 253.091 187.131C250.675 180.443 241.584 170.192 241.584 170.192L223.994 177.657Z" fill="white" stroke="#333333" stroke-width="1.08896" stroke-miterlimit="10" stroke-linecap="round" stroke-linejoin="round"/>
<path d="M203.791 107.838C203.791 107.838 191.53 112.933 195.152 120.339C198.773 127.744 206.138 124.592 207.184 128.938C208.229 133.284 197.362 144.177 200.554 151.071C203.746 157.967 205.954 161.638 205.081 166.292C204.208 170.947 199.345 175.999 203.129 181.526C206.911 187.053 211.885 189.88 219.559 188.647C227.232 187.414 232.228 145.748 228.271 131.22C224.315 116.691 212.283 108.091 209.506 107.38C206.73 106.671 203.791 107.838 203.791 107.838Z" fill="#333333"/>
<path d="M205.232 112.164C205.232 112.164 198.698 114.855 200.235 119.467C201.772 124.08 205.232 124.465 205.232 124.465" stroke="white" stroke-width="0.362988" stroke-miterlimit="10" stroke-linejoin="round"/>
<path d="M242.652 149.103C242.122 147.338 238.769 142.923 238.769 142.923L238.137 141.696C236.275 134.46 234.497 128.757 234.497 128.757L216.855 133.822L204.136 146.396L223.995 177.657C223.995 177.657 235.617 181.646 241.584 170.194C242.77 167.916 242.431 162.732 241.439 156.78C241.915 154.648 243.076 150.517 242.652 149.103Z" fill="white" stroke="#333333" stroke-width="1.08896" stroke-miterlimit="10" stroke-linecap="round" stroke-linejoin="round"/>
<path d="M218.974 143.804C221.631 143.804 223.784 141.516 223.784 138.693C223.784 135.871 221.631 133.583 218.974 133.583C216.318 133.583 214.165 135.871 214.165 138.693C214.165 141.516 216.318 143.804 218.974 143.804Z" fill="#3F9964" stroke="#333333" stroke-width="0.725975" stroke-miterlimit="10" stroke-linecap="round"/>
<path d="M216.661 229.822C216.661 229.822 226.074 234.714 238.174 232.293C250.274 229.874 260.677 220.682 260.677 220.682C261.073 220.123 256.592 192.19 254.041 183.065C251.231 173.011 247.039 166.863 243.499 167.456C243.499 167.456 240.112 173.265 235.271 175.199C230.431 177.135 223.994 177.657 223.994 177.657C223.994 177.657 221.235 178.103 217.848 184.395C214.46 190.687 215.693 225.466 216.661 229.822Z" fill="#333333"/>
<path d="M248.038 181.341C248.038 181.341 245.365 198.383 236.342 207.07" stroke="white" stroke-width="0.362988" stroke-miterlimit="10" stroke-linejoin="round"/>
<path d="M243.026 202.392C243.026 202.392 237.68 213.085 229.993 216.092" stroke="white" stroke-width="0.362988" stroke-miterlimit="10" stroke-linejoin="round"/>
<path d="M210.123 129.703C210.123 129.703 212.749 134.483 215.376 139.264C218.002 144.044 223.744 142.006 221.793 135.259C219.841 128.512 217.761 123.272 217.761 123.272L210.123 129.703Z" fill="white" stroke="#333333" stroke-width="1.08896" stroke-miterlimit="10" stroke-linecap="round" stroke-linejoin="round"/>
<path d="M203.885 117.779C203.885 117.779 203.615 131.944 213.622 136.587C223.629 141.231 225.671 122.96 223.618 113.796C221.567 104.634 204.504 105.061 203.885 117.779Z" fill="white" stroke="#333333" stroke-width="1.08896" stroke-miterlimit="10" stroke-linecap="round" stroke-linejoin="round"/>
<path d="M207.737 111.487C207.737 111.487 213.665 119.563 217.73 121.805C221.794 124.046 223.43 127.023 223.43 127.023C223.43 127.023 225.187 128.592 225.977 141.431C226.767 154.268 236.936 157.033 237.03 150.42C237.125 143.807 236.173 132.846 236.173 132.846C236.173 132.846 236.671 121.538 229.576 110.524C222.481 99.5098 203.768 102.634 201.526 106.697C199.285 110.76 207.737 111.487 207.737 111.487Z" fill="#333333"/>
<path d="M206.77 109.858C206.77 109.858 213.304 110.243 218.684 116.007C224.064 121.772 229.831 129.845 235.98 129.076" stroke="white" stroke-width="0.362988" stroke-miterlimit="10" stroke-linejoin="round"/>
<path d="M203.792 107.838C203.792 107.838 207.154 103.707 213.688 106.013C220.222 108.319 225.987 121.387 231.368 122.924" stroke="white" stroke-width="0.362988" stroke-miterlimit="10" stroke-linejoin="round"/>
<path d="M223.43 127.023C223.43 127.023 229.062 129.459 229.062 135.608C229.062 141.757 230.984 152.519 235.211 152.519" stroke="white" stroke-width="0.362988" stroke-miterlimit="10" stroke-linejoin="round"/>
<path d="M204.135 146.396C204.135 146.396 197.589 153.914 206.947 160.809C210.56 163.472 228.403 170.339 234.604 172.687C235.921 173.187 237.401 172.951 238.5 172.072L263.438 152.099C263.438 152.099 268.514 152.364 269.876 151.002C270.822 150.056 273.723 146.921 275.407 145.095C276.155 144.284 276.301 143.091 275.779 142.121C275.203 141.053 273.96 140.529 272.795 140.864L268.435 142.11L269.138 140.704C269.493 139.994 269.165 139.133 268.428 138.837C267.889 138.622 267.273 138.772 266.895 139.214L264.802 141.656L262.077 147.105L234.337 160.125L211.28 148.83" fill="white"/>
<path d="M204.135 146.396C204.135 146.396 197.589 153.914 206.947 160.809C210.56 163.472 228.403 170.339 234.604 172.687C235.921 173.187 237.401 172.951 238.5 172.072L263.438 152.099C263.438 152.099 268.514 152.364 269.876 151.002C270.822 150.056 273.723 146.921 275.407 145.095C276.155 144.284 276.301 143.091 275.779 142.121C275.203 141.053 273.96 140.529 272.795 140.864L268.435 142.11L269.138 140.704C269.493 139.994 269.165 139.133 268.428 138.837C267.889 138.622 267.273 138.772 266.895 139.214L264.802 141.656L262.077 147.105L234.337 160.125L211.28 148.83" stroke="#333333" stroke-width="1.08896" stroke-miterlimit="10" stroke-linecap="round" stroke-linejoin="round"/>
<path d="M220.992 153.662C220.992 153.662 213.732 157.292 215.426 164.552L217.845 165.762C217.845 165.762 216.394 157.292 223.411 155.115L220.992 153.662Z" fill="#3F9964" stroke="#333333" stroke-width="0.725975" stroke-miterlimit="10" stroke-linecap="round"/>
<path d="M212.991 146.984L216.168 150.868" stroke="#333333" stroke-width="0.725975" stroke-miterlimit="10" stroke-linecap="round" stroke-linejoin="round"/>
<path d="M205.968 121.711C205.968 121.711 206.38 120.61 208.034 120.885C209.685 121.16 210.374 126.805 210.649 127.631C210.923 128.457 211.888 128.87 212.714 128.182" stroke="#333333" stroke-width="0.725975" stroke-miterlimit="10" stroke-linecap="round" stroke-linejoin="round"/>
<path d="M211.612 119.783C211.612 119.783 212.024 118.131 214.504 119.094" stroke="#333333" stroke-width="0.725975" stroke-miterlimit="10" stroke-linecap="round" stroke-linejoin="round"/>
<path d="M212.162 131.76C212.162 131.76 214.916 133.549 216.43 130.108" stroke="#333333" stroke-width="0.725975" stroke-miterlimit="10" stroke-linejoin="round"/>
<path d="M208.433 124.699C208.545 125.181 208.425 125.62 208.165 125.68C207.906 125.74 207.606 125.399 207.494 124.917C207.383 124.436 207.502 123.996 207.763 123.936C208.021 123.876 208.322 124.217 208.433 124.699Z" fill="#333333"/>
<path d="M214.698 123.117C214.81 123.598 214.69 124.038 214.43 124.098C214.171 124.158 213.871 123.817 213.759 123.335C213.647 122.853 213.767 122.415 214.027 122.354C214.286 122.293 214.586 122.635 214.698 123.117Z" fill="#333333"/>
<path d="M275.271 141.268L268.719 144.431" stroke="#333333" stroke-width="0.725975" stroke-miterlimit="10" stroke-linecap="round" stroke-linejoin="round"/>
<path d="M275.948 142.85L269.623 146.464" stroke="#333333" stroke-width="0.725975" stroke-miterlimit="10" stroke-linecap="round" stroke-linejoin="round"/>
<path d="M274.367 146.013L270.752 147.82" stroke="#333333" stroke-width="0.725975" stroke-miterlimit="10" stroke-linecap="round" stroke-linejoin="round"/>
<path d="M268.432 142.107L265.783 143.301" stroke="#333333" stroke-width="0.725975" stroke-miterlimit="10" stroke-linecap="round" stroke-linejoin="round"/>
</svg>
