<svg width="171" height="50" viewBox="0 0 171 50" fill="none" xmlns="http://www.w3.org/2000/svg">
<path d="M69.71 35.8C67.89 35.8 66.29 35.4 64.91 34.6C63.55 33.8 62.49 32.64 61.73 31.12C60.97 29.6 60.59 27.77 60.59 25.63C60.59 23.51 60.99 21.69 61.79 20.17C62.59 18.63 63.72 17.45 65.18 16.63C66.66 15.81 68.37 15.4 70.31 15.4C72.45 15.4 74.18 15.8 75.5 16.6C76.82 17.38 77.87 18.6 78.65 20.26L74.81 21.91C74.49 20.85 73.94 20.07 73.16 19.57C72.4 19.05 71.46 18.79 70.34 18.79C69.22 18.79 68.25 19.06 67.43 19.6C66.61 20.12 65.98 20.89 65.54 21.91C65.1 22.91 64.88 24.14 64.88 25.6C64.88 27.1 65.09 28.37 65.51 29.41C65.93 30.43 66.55 31.2 67.37 31.72C68.21 32.22 69.24 32.47 70.46 32.47C71.12 32.47 71.73 32.39 72.29 32.23C72.87 32.07 73.37 31.83 73.79 31.51C74.21 31.19 74.54 30.78 74.78 30.28C75.02 29.78 75.14 29.2 75.14 28.54V28.09H69.95V25.06H78.71V35.5H75.8L75.5 31.18L76.22 31.69C75.78 33.01 75 34.03 73.88 34.75C72.78 35.45 71.39 35.8 69.71 35.8ZM89.7997 35.8C88.2197 35.8 86.8397 35.49 85.6597 34.87C84.4997 34.25 83.5997 33.36 82.9597 32.2C82.3197 31.04 81.9997 29.64 81.9997 28C81.9997 26.36 82.3197 24.96 82.9597 23.8C83.5997 22.64 84.4897 21.75 85.6297 21.13C86.7897 20.51 88.1097 20.2 89.5897 20.2C91.1097 20.2 92.3997 20.51 93.4597 21.13C94.5197 21.73 95.3297 22.56 95.8897 23.62C96.4497 24.66 96.7297 25.85 96.7297 27.19C96.7297 27.59 96.7197 27.97 96.6997 28.33C96.6797 28.69 96.6497 29.01 96.6097 29.29H84.6397V26.44H94.8097L92.8297 27.16C92.8297 25.9 92.5397 24.93 91.9597 24.25C91.3997 23.57 90.5997 23.23 89.5597 23.23C88.7997 23.23 88.1397 23.41 87.5797 23.77C87.0397 24.13 86.6297 24.67 86.3497 25.39C86.0697 26.09 85.9297 26.98 85.9297 28.06C85.9297 29.12 86.0797 30 86.3797 30.7C86.6997 31.38 87.1397 31.89 87.6997 32.23C88.2797 32.57 88.9697 32.74 89.7697 32.74C90.6497 32.74 91.3597 32.57 91.8997 32.23C92.4397 31.89 92.8597 31.42 93.1597 30.82L96.4297 32.08C96.1097 32.86 95.6197 33.53 94.9597 34.09C94.3197 34.65 93.5497 35.08 92.6497 35.38C91.7697 35.66 90.8197 35.8 89.7997 35.8ZM108.166 15.7C111.266 15.7 113.666 16.56 115.366 18.28C117.066 19.98 117.916 22.42 117.916 25.6C117.916 28.76 117.066 31.2 115.366 32.92C113.666 34.64 111.266 35.5 108.166 35.5H100.516V15.7H108.166ZM107.956 32.2C109.836 32.2 111.246 31.64 112.186 30.52C113.146 29.38 113.626 27.74 113.626 25.6C113.626 23.46 113.146 21.83 112.186 20.71C111.246 19.57 109.836 19 107.956 19H104.656V32.2H107.956ZM128.498 20.2C130.018 20.2 131.348 20.51 132.488 21.13C133.648 21.75 134.548 22.64 135.188 23.8C135.848 24.96 136.178 26.36 136.178 28C136.178 29.62 135.848 31.02 135.188 32.2C134.548 33.36 133.648 34.25 132.488 34.87C131.348 35.49 130.018 35.8 128.498 35.8C126.998 35.8 125.668 35.49 124.508 34.87C123.348 34.25 122.438 33.36 121.778 32.2C121.138 31.02 120.818 29.62 120.818 28C120.818 26.36 121.138 24.96 121.778 23.8C122.438 22.64 123.348 21.75 124.508 21.13C125.668 20.51 126.998 20.2 128.498 20.2ZM128.498 23.26C127.738 23.26 127.088 23.44 126.548 23.8C126.028 24.14 125.628 24.66 125.348 25.36C125.068 26.06 124.928 26.94 124.928 28C124.928 29.06 125.068 29.94 125.348 30.64C125.628 31.34 126.028 31.87 126.548 32.23C127.088 32.57 127.738 32.74 128.498 32.74C129.238 32.74 129.868 32.57 130.388 32.23C130.928 31.87 131.338 31.34 131.618 30.64C131.898 29.94 132.038 29.06 132.038 28C132.038 26.94 131.898 26.06 131.618 25.36C131.338 24.66 130.928 24.14 130.388 23.8C129.868 23.44 129.238 23.26 128.498 23.26ZM146.427 20.2C147.767 20.2 148.897 20.4 149.817 20.8C150.757 21.18 151.507 21.71 152.067 22.39C152.647 23.05 153.057 23.79 153.297 24.61L149.457 25.99C149.257 25.09 148.917 24.41 148.437 23.95C147.957 23.49 147.307 23.26 146.487 23.26C145.727 23.26 145.077 23.44 144.537 23.8C143.997 24.14 143.587 24.67 143.307 25.39C143.027 26.09 142.887 26.97 142.887 28.03C142.887 29.09 143.027 29.97 143.307 30.67C143.607 31.37 144.027 31.89 144.567 32.23C145.127 32.57 145.777 32.74 146.517 32.74C147.117 32.74 147.627 32.64 148.047 32.44C148.467 32.22 148.807 31.91 149.067 31.51C149.347 31.11 149.537 30.63 149.637 30.07L153.357 31.27C153.137 32.17 152.727 32.96 152.127 33.64C151.527 34.32 150.757 34.85 149.817 35.23C148.877 35.61 147.787 35.8 146.547 35.8C145.007 35.8 143.647 35.49 142.467 34.87C141.287 34.25 140.377 33.36 139.737 32.2C139.097 31.04 138.777 29.64 138.777 28C138.777 26.36 139.097 24.96 139.737 23.8C140.377 22.64 141.277 21.75 142.437 21.13C143.597 20.51 144.927 20.2 146.427 20.2ZM162.551 35.8C161.031 35.8 159.641 35.53 158.381 34.99C157.141 34.45 156.131 33.69 155.351 32.71L157.721 30.31C158.201 31.03 158.841 31.62 159.641 32.08C160.441 32.54 161.391 32.77 162.491 32.77C163.271 32.77 163.891 32.66 164.351 32.44C164.831 32.2 165.071 31.83 165.071 31.33C165.071 31.01 164.961 30.74 164.741 30.52C164.521 30.28 164.081 30.09 163.421 29.95L160.781 29.41C159.041 29.05 157.801 28.51 157.061 27.79C156.341 27.05 155.981 26.1 155.981 24.94C155.981 24.12 156.221 23.35 156.701 22.63C157.201 21.91 157.941 21.33 158.921 20.89C159.901 20.43 161.121 20.2 162.581 20.2C164.081 20.2 165.381 20.44 166.481 20.92C167.601 21.38 168.481 22.07 169.121 22.99L166.661 25.39C166.221 24.69 165.641 24.16 164.921 23.8C164.221 23.42 163.481 23.23 162.701 23.23C162.141 23.23 161.661 23.29 161.261 23.41C160.861 23.53 160.561 23.7 160.361 23.92C160.161 24.12 160.061 24.38 160.061 24.7C160.061 25.02 160.201 25.3 160.481 25.54C160.761 25.76 161.271 25.95 162.011 26.11L165.071 26.74C166.551 27.04 167.611 27.55 168.251 28.27C168.891 28.97 169.211 29.82 169.211 30.82C169.211 31.78 168.951 32.64 168.431 33.4C167.931 34.14 167.181 34.73 166.181 35.17C165.201 35.59 163.991 35.8 162.551 35.8Z" fill="#003C19"/>
<path d="M23.8169 5.62718e-06C22.465 0.0020587 21.1692 0.585145 20.2143 1.62107C19.2595 2.65699 18.7238 4.06094 18.7251 5.52426C18.7263 6.98762 19.2645 8.39053 20.2212 9.42453C21.1778 10.4585 22.4747 11.039 23.8267 11.0382C25.1786 11.0375 26.4749 10.4557 27.4305 9.42068C28.3862 8.3857 28.9231 6.98228 28.9231 5.51896V5.50837C28.9204 4.0451 28.3811 2.64286 27.4235 1.60993C26.466 0.576995 25.1687 -0.0020824 23.8169 5.62718e-06ZM6.99617 12.7482C6.10013 12.754 5.18914 12.8078 4.33474 13.041C3.7718 13.1952 3.22655 13.4491 2.87291 13.8442C2.42878 14.3393 2.37176 15.0104 2.58827 15.5835C2.78203 16.0885 3.30278 16.4674 3.88293 16.684C5.13094 17.1468 6.5181 17.2449 7.83051 17.5364C8.07256 17.6005 8.3403 17.6711 8.4902 17.85C8.64564 18.0626 8.55337 18.3557 8.29855 18.4894C7.87218 18.7239 7.32763 18.7258 6.83131 18.7177C6.37774 18.6975 5.88026 18.6562 5.5194 18.4105C5.25403 18.2338 5.20756 17.933 5.26696 17.6747L2.34124 17.6749C2.33347 18.157 2.42 18.6601 2.74643 19.0741C3.01902 19.4274 3.4593 19.6764 3.93341 19.8266C4.6901 20.0674 5.50995 20.14 6.31716 20.162C7.4125 20.1822 8.52906 20.147 9.58109 19.8779C10.2079 19.7129 10.8242 19.4454 11.2256 19.0113C11.9384 18.2368 11.7706 17.0103 10.8229 16.408C10.3511 16.1107 9.78591 15.926 9.20965 15.8071C8.36691 15.6179 7.50871 15.4795 6.65486 15.327C6.35507 15.2638 6.03805 15.208 5.78601 15.0546C5.5223 14.9012 5.50108 14.5402 5.76978 14.3824C6.11731 14.1702 6.58035 14.1717 6.99617 14.1713C7.43475 14.1794 7.91168 14.2093 8.27253 14.4317C8.47461 14.5541 8.55572 14.7597 8.55795 14.957L11.3386 14.9501C11.3275 14.5684 11.2627 14.172 11.0051 13.8429C10.7064 13.4374 10.1811 13.1819 9.64034 13.0326C8.79205 12.8003 7.8861 12.7527 6.99617 12.7482ZM13.0287 12.976L13.0275 20.1676L21.1364 20.1679L21.1357 18.6001H16.0017V17.204H20.5807V15.6713H16.0017L16.0007 14.5265L20.9506 14.5251L20.9478 12.976L13.0287 12.976ZM26.3887 12.9785C26.3887 12.9785 23.8831 12.9793 22.6307 12.9793L22.6301 20.1715L25.477 20.1718L25.4752 15.332L29.3749 20.1679L33.282 20.1717L33.281 12.9793L30.4318 12.9799L30.4351 17.785L26.3887 12.9785ZM38.3584 12.9905C38.3584 12.9905 35.2895 17.7883 33.7473 20.1835L36.7356 20.1838L37.4524 18.8861H42.0698L42.7387 20.1843L46.058 20.1838L41.6594 12.9916L38.3584 12.9905ZM39.8516 14.7072L41.2687 17.3125L38.3396 17.317L39.8516 14.7072ZM0 22.2018L0.0257574 26.117L13.5418 26.0649C14.2311 26.2255 14.6314 26.7112 14.4905 27.8153L6.17729 43.567L8.88534 46.3072L21.7613 22.2019L0 22.2018ZM25.7916 22.2353L38.4534 46.2383L41.2517 43.5156L32.8418 27.8053C32.701 26.6977 33.1013 26.2064 33.7908 26.0454L47.3097 26.0975L47.3061 22.2473L25.7916 22.2353ZM23.6554 26.2074L11.7814 48.2681L14.9354 49.9318L22.8586 35.4368C23.1316 35.1951 23.4081 35.0663 23.6847 35.0543C23.9761 35.0422 24.2714 35.1589 24.5665 35.4087L32.4714 49.948L35.7248 48.1111L23.6554 26.2074Z" fill="#39A900"/>
</svg>
